<svg width="169" height="181" viewBox="0 0 169 181" fill="none" xmlns="http://www.w3.org/2000/svg">
<path d="M127.385 92.951V131.244L122.282 136.346L78.8719 92.951V87.338L131.69 34.5386L132.514 33.7153C133.886 33.1415 135.109 32.6426 136.482 32.0688H162.698C164.894 34.2641 166.116 35.4865 168.313 37.6818V81.7375C166.129 83.9203 164.906 85.1427 162.723 87.3256H132.988L127.373 92.9385L127.385 92.951Z" fill="currentColor"/>
<path d="M0 32.0688L5.00358 27.0296L32.0803 54.0967H40.0162L69.289 24.8343L94.1447 0H102.081L127.385 25.2958V30.9088L126.225 32.0688L74.904 83.3715L72.5831 85.6915L68.6152 87.338H5.61499C3.41891 85.1427 2.19609 83.9203 0 81.725V81.6377" fill="currentColor"/>
<path d="M0 98.6388V148.208L5.01606 153.234L32.0803 126.18H40.0162L74.8291 160.98L94.1572 180.301H102.093L127.385 155.018V149.368L126.225 148.208L74.904 96.905L72.5831 94.585C71.2106 94.0112 69.9878 93.5123 68.6152 92.9385H5.61499C3.41891 95.1338 2.19609 96.3562 0 98.5515V98.6388Z" fill="currentColor"/>
<path d="M138.603 92.951H162.71C164.906 95.1463 166.129 96.3687 168.325 98.564V142.607C166.129 144.802 164.906 146.025 162.71 148.22H138.603L132.988 142.607V98.564L138.603 92.951Z" fill="currentColor"/>
</svg>
